<mxfile host="app.diagrams.net" modified="2021-02-16T04:37:21.573Z" agent="5.0 (Windows NT 10.0; Win64; x64) AppleWebKit/537.36 (KHTML, like Gecko) Chrome/88.0.4324.150 Safari/537.36" etag="onVp-KW9edcliN-NCVI4" version="14.3.1" type="github">
  <diagram id="C5RBs43oDa-KdzZeNtuy" name="Page-1">
    <mxGraphModel dx="865" dy="457" grid="1" gridSize="10" guides="1" tooltips="1" connect="1" arrows="1" fold="1" page="1" pageScale="1" pageWidth="827" pageHeight="1169" math="0" shadow="0">
      <root>
        <mxCell id="WIyWlLk6GJQsqaUBKTNV-0" />
        <mxCell id="WIyWlLk6GJQsqaUBKTNV-1" parent="WIyWlLk6GJQsqaUBKTNV-0" />
        <mxCell id="vZmgvxkYMbMQP1JWZ6cx-1" value="listProduct.html" style="rounded=1;whiteSpace=wrap;html=1;" vertex="1" parent="WIyWlLk6GJQsqaUBKTNV-1">
          <mxGeometry x="80" y="200" width="120" height="40" as="geometry" />
        </mxCell>
        <mxCell id="vZmgvxkYMbMQP1JWZ6cx-2" value="AdminPageController&lt;br&gt;页面跳转Controller" style="rounded=1;whiteSpace=wrap;html=1;" vertex="1" parent="WIyWlLk6GJQsqaUBKTNV-1">
          <mxGeometry x="320" y="200" width="120" height="40" as="geometry" />
        </mxCell>
        <mxCell id="vZmgvxkYMbMQP1JWZ6cx-3" value="" style="endArrow=classic;html=1;entryX=0;entryY=0.5;entryDx=0;entryDy=0;" edge="1" parent="WIyWlLk6GJQsqaUBKTNV-1" target="vZmgvxkYMbMQP1JWZ6cx-2">
          <mxGeometry width="50" height="50" relative="1" as="geometry">
            <mxPoint x="200" y="220" as="sourcePoint" />
            <mxPoint x="250" y="170" as="targetPoint" />
          </mxGeometry>
        </mxCell>
        <mxCell id="vZmgvxkYMbMQP1JWZ6cx-4" value="访问" style="text;html=1;strokeColor=none;fillColor=none;align=center;verticalAlign=middle;whiteSpace=wrap;rounded=0;" vertex="1" parent="WIyWlLk6GJQsqaUBKTNV-1">
          <mxGeometry x="220" y="200" width="70" height="20" as="geometry" />
        </mxCell>
        <mxCell id="vZmgvxkYMbMQP1JWZ6cx-6" value="listProductImage.html" style="rounded=1;whiteSpace=wrap;html=1;" vertex="1" parent="WIyWlLk6GJQsqaUBKTNV-1">
          <mxGeometry x="150" y="320" width="120" height="50" as="geometry" />
        </mxCell>
        <mxCell id="vZmgvxkYMbMQP1JWZ6cx-7" value="" style="endArrow=classic;html=1;entryX=0.75;entryY=0;entryDx=0;entryDy=0;" edge="1" parent="WIyWlLk6GJQsqaUBKTNV-1" source="vZmgvxkYMbMQP1JWZ6cx-2" target="vZmgvxkYMbMQP1JWZ6cx-6">
          <mxGeometry width="50" height="50" relative="1" as="geometry">
            <mxPoint x="310" y="340" as="sourcePoint" />
            <mxPoint x="360" y="290" as="targetPoint" />
          </mxGeometry>
        </mxCell>
        <mxCell id="vZmgvxkYMbMQP1JWZ6cx-8" value="跳转" style="text;html=1;strokeColor=none;fillColor=none;align=center;verticalAlign=middle;whiteSpace=wrap;rounded=0;" vertex="1" parent="WIyWlLk6GJQsqaUBKTNV-1">
          <mxGeometry x="250" y="270" width="50" height="20" as="geometry" />
        </mxCell>
        <mxCell id="vZmgvxkYMbMQP1JWZ6cx-9" value="ProductImageController" style="rounded=1;whiteSpace=wrap;html=1;" vertex="1" parent="WIyWlLk6GJQsqaUBKTNV-1">
          <mxGeometry x="350" y="320" width="140" height="50" as="geometry" />
        </mxCell>
        <mxCell id="vZmgvxkYMbMQP1JWZ6cx-10" value="ProductImageService&lt;br&gt;" style="rounded=1;whiteSpace=wrap;html=1;" vertex="1" parent="WIyWlLk6GJQsqaUBKTNV-1">
          <mxGeometry x="560" y="320" width="120" height="50" as="geometry" />
        </mxCell>
        <mxCell id="vZmgvxkYMbMQP1JWZ6cx-11" value="" style="endArrow=classic;html=1;exitX=0;exitY=0;exitDx=0;exitDy=0;entryX=1;entryY=0;entryDx=0;entryDy=0;" edge="1" parent="WIyWlLk6GJQsqaUBKTNV-1" source="vZmgvxkYMbMQP1JWZ6cx-16" target="vZmgvxkYMbMQP1JWZ6cx-16">
          <mxGeometry width="50" height="50" relative="1" as="geometry">
            <mxPoint x="480" y="360" as="sourcePoint" />
            <mxPoint x="570" y="360" as="targetPoint" />
          </mxGeometry>
        </mxCell>
        <mxCell id="vZmgvxkYMbMQP1JWZ6cx-12" value="" style="endArrow=classic;html=1;entryX=0;entryY=0.75;entryDx=0;entryDy=0;exitX=1;exitY=0.75;exitDx=0;exitDy=0;" edge="1" parent="WIyWlLk6GJQsqaUBKTNV-1" target="vZmgvxkYMbMQP1JWZ6cx-17" source="vZmgvxkYMbMQP1JWZ6cx-17">
          <mxGeometry width="50" height="50" relative="1" as="geometry">
            <mxPoint x="570" y="342" as="sourcePoint" />
            <mxPoint x="659.7" y="340" as="targetPoint" />
          </mxGeometry>
        </mxCell>
        <mxCell id="vZmgvxkYMbMQP1JWZ6cx-13" value="" style="endArrow=classic;html=1;" edge="1" parent="WIyWlLk6GJQsqaUBKTNV-1">
          <mxGeometry width="50" height="50" relative="1" as="geometry">
            <mxPoint x="270" y="359" as="sourcePoint" />
            <mxPoint x="350" y="359" as="targetPoint" />
          </mxGeometry>
        </mxCell>
        <mxCell id="vZmgvxkYMbMQP1JWZ6cx-14" value="" style="endArrow=classic;html=1;" edge="1" parent="WIyWlLk6GJQsqaUBKTNV-1">
          <mxGeometry width="50" height="50" relative="1" as="geometry">
            <mxPoint x="350" y="341" as="sourcePoint" />
            <mxPoint x="270" y="341" as="targetPoint" />
          </mxGeometry>
        </mxCell>
        <mxCell id="vZmgvxkYMbMQP1JWZ6cx-16" value="product对象" style="text;html=1;strokeColor=none;fillColor=none;align=center;verticalAlign=middle;whiteSpace=wrap;rounded=0;" vertex="1" parent="WIyWlLk6GJQsqaUBKTNV-1">
          <mxGeometry x="490" y="358" width="70" height="20" as="geometry" />
        </mxCell>
        <mxCell id="vZmgvxkYMbMQP1JWZ6cx-17" value="list集合" style="text;html=1;strokeColor=none;fillColor=none;align=center;verticalAlign=middle;whiteSpace=wrap;rounded=0;" vertex="1" parent="WIyWlLk6GJQsqaUBKTNV-1">
          <mxGeometry x="490" y="322" width="70" height="20" as="geometry" />
        </mxCell>
        <mxCell id="vZmgvxkYMbMQP1JWZ6cx-18" value="list集合" style="text;html=1;strokeColor=none;fillColor=none;align=center;verticalAlign=middle;whiteSpace=wrap;rounded=0;" vertex="1" parent="WIyWlLk6GJQsqaUBKTNV-1">
          <mxGeometry x="280" y="323" width="72" height="17" as="geometry" />
        </mxCell>
        <mxCell id="vZmgvxkYMbMQP1JWZ6cx-19" value="" style="endArrow=none;dashed=1;html=1;dashPattern=1 3;strokeWidth=2;" edge="1" parent="WIyWlLk6GJQsqaUBKTNV-1">
          <mxGeometry width="50" height="50" relative="1" as="geometry">
            <mxPoint x="300" y="440" as="sourcePoint" />
            <mxPoint x="300" y="390" as="targetPoint" />
          </mxGeometry>
        </mxCell>
        <mxCell id="vZmgvxkYMbMQP1JWZ6cx-20" value="" style="endArrow=none;dashed=1;html=1;dashPattern=1 3;strokeWidth=2;" edge="1" parent="WIyWlLk6GJQsqaUBKTNV-1">
          <mxGeometry width="50" height="50" relative="1" as="geometry">
            <mxPoint x="519.5799999999999" y="440" as="sourcePoint" />
            <mxPoint x="519.5799999999999" y="390" as="targetPoint" />
          </mxGeometry>
        </mxCell>
        <mxCell id="vZmgvxkYMbMQP1JWZ6cx-21" value="前端" style="text;html=1;strokeColor=none;fillColor=none;align=center;verticalAlign=middle;whiteSpace=wrap;rounded=0;" vertex="1" parent="WIyWlLk6GJQsqaUBKTNV-1">
          <mxGeometry x="220" y="410" width="40" height="20" as="geometry" />
        </mxCell>
        <mxCell id="vZmgvxkYMbMQP1JWZ6cx-22" value="Controller层" style="text;html=1;strokeColor=none;fillColor=none;align=center;verticalAlign=middle;whiteSpace=wrap;rounded=0;" vertex="1" parent="WIyWlLk6GJQsqaUBKTNV-1">
          <mxGeometry x="370" y="410" width="70" height="20" as="geometry" />
        </mxCell>
        <mxCell id="vZmgvxkYMbMQP1JWZ6cx-23" value="Service层" style="text;html=1;strokeColor=none;fillColor=none;align=center;verticalAlign=middle;whiteSpace=wrap;rounded=0;" vertex="1" parent="WIyWlLk6GJQsqaUBKTNV-1">
          <mxGeometry x="581" y="409" width="70" height="20" as="geometry" />
        </mxCell>
        <mxCell id="vZmgvxkYMbMQP1JWZ6cx-28" value="ProductService" style="rounded=1;whiteSpace=wrap;html=1;" vertex="1" parent="WIyWlLk6GJQsqaUBKTNV-1">
          <mxGeometry x="540" y="210" width="120" height="40" as="geometry" />
        </mxCell>
        <mxCell id="vZmgvxkYMbMQP1JWZ6cx-29" value="" style="endArrow=classic;html=1;entryX=0;entryY=1;entryDx=0;entryDy=0;exitX=0.75;exitY=0;exitDx=0;exitDy=0;" edge="1" parent="WIyWlLk6GJQsqaUBKTNV-1" source="vZmgvxkYMbMQP1JWZ6cx-9" target="vZmgvxkYMbMQP1JWZ6cx-28">
          <mxGeometry width="50" height="50" relative="1" as="geometry">
            <mxPoint x="480" y="320" as="sourcePoint" />
            <mxPoint x="530" y="270" as="targetPoint" />
          </mxGeometry>
        </mxCell>
        <mxCell id="vZmgvxkYMbMQP1JWZ6cx-30" value="pid" style="text;html=1;strokeColor=none;fillColor=none;align=center;verticalAlign=middle;whiteSpace=wrap;rounded=0;" vertex="1" parent="WIyWlLk6GJQsqaUBKTNV-1">
          <mxGeometry x="460" y="270" width="40" height="20" as="geometry" />
        </mxCell>
        <mxCell id="vZmgvxkYMbMQP1JWZ6cx-31" value="" style="endArrow=classic;html=1;exitX=0.25;exitY=1;exitDx=0;exitDy=0;entryX=0.96;entryY=0.003;entryDx=0;entryDy=0;entryPerimeter=0;" edge="1" parent="WIyWlLk6GJQsqaUBKTNV-1" source="vZmgvxkYMbMQP1JWZ6cx-28" target="vZmgvxkYMbMQP1JWZ6cx-9">
          <mxGeometry width="50" height="50" relative="1" as="geometry">
            <mxPoint x="570" y="310" as="sourcePoint" />
            <mxPoint x="490" y="320" as="targetPoint" />
          </mxGeometry>
        </mxCell>
        <mxCell id="vZmgvxkYMbMQP1JWZ6cx-32" value="product对象" style="text;html=1;strokeColor=none;fillColor=none;align=center;verticalAlign=middle;whiteSpace=wrap;rounded=0;" vertex="1" parent="WIyWlLk6GJQsqaUBKTNV-1">
          <mxGeometry x="530" y="280" width="40" height="20" as="geometry" />
        </mxCell>
        <mxCell id="vZmgvxkYMbMQP1JWZ6cx-33" value="type" style="text;html=1;strokeColor=none;fillColor=none;align=center;verticalAlign=middle;whiteSpace=wrap;rounded=0;" vertex="1" parent="WIyWlLk6GJQsqaUBKTNV-1">
          <mxGeometry x="290" y="358" width="40" height="20" as="geometry" />
        </mxCell>
        <mxCell id="vZmgvxkYMbMQP1JWZ6cx-34" value="" style="curved=1;endArrow=classic;html=1;exitX=0;exitY=0.75;exitDx=0;exitDy=0;entryX=0;entryY=0.25;entryDx=0;entryDy=0;" edge="1" parent="WIyWlLk6GJQsqaUBKTNV-1" source="vZmgvxkYMbMQP1JWZ6cx-6" target="vZmgvxkYMbMQP1JWZ6cx-6">
          <mxGeometry width="50" height="50" relative="1" as="geometry">
            <mxPoint x="70" y="378" as="sourcePoint" />
            <mxPoint x="120" y="328" as="targetPoint" />
            <Array as="points">
              <mxPoint x="120" y="370" />
              <mxPoint x="120" y="320" />
            </Array>
          </mxGeometry>
        </mxCell>
        <mxCell id="vZmgvxkYMbMQP1JWZ6cx-35" value="显示list数据" style="text;html=1;strokeColor=none;fillColor=none;align=center;verticalAlign=middle;whiteSpace=wrap;rounded=0;" vertex="1" parent="WIyWlLk6GJQsqaUBKTNV-1">
          <mxGeometry x="70" y="335" width="50" height="20" as="geometry" />
        </mxCell>
      </root>
    </mxGraphModel>
  </diagram>
</mxfile>
